Coordinates
version=1
nRows=54
nColumns=12
inDegrees=yes

Units are S.I. units (second, meters, Newtons, ...)
Angles are in degrees

endheader
time	SC_y	SC_z	SC_x	AC_y	AC_z	AC_x	GH_y	GH_z	GH_yy	EL_x	PS_y
       0.0              -42.48          37.44          62.32          65.11         -5.792          14.43         -116.4           39.2         -8.674          76.62          126.9
   0.02646              -42.47          37.44          62.31          65.11         -5.793          14.42         -116.3           39.2         -8.662          76.62          126.9
   0.05291              -42.47          37.43          62.31          65.11         -5.795          14.42         -116.3           39.2         -8.649          76.63          126.9
   0.07937              -42.47          37.43           62.3          65.11         -5.796          14.42         -116.2           39.2         -8.634          76.64          126.9
    0.1058              -42.46          37.43          62.29          65.11         -5.798          14.42         -116.2           39.2         -8.619          76.65          126.9
    0.1323              -42.46          37.42          62.29          65.11         -5.799          14.41         -116.1          39.19         -8.603          76.66          126.8
    0.1587              -42.45          37.42          62.28          65.11         -5.801          14.41         -116.1          39.19         -8.586          76.67          126.8
    0.1852              -42.45          37.42          62.27          65.11         -5.803          14.41         -116.0          39.19         -8.568          76.68          126.8
    0.2117              -42.44          37.41          62.26          65.11         -5.805          14.41         -115.9          39.19         -8.548          76.69          126.8
    0.2381              -42.44          37.41          62.25          65.11         -5.807           14.4         -115.9          39.19         -8.527           76.7          126.7
    0.2646              -42.43           37.4          62.24          65.11          -5.81           14.4         -115.8          39.18         -8.505          76.72          126.7
     0.291              -42.43           37.4          62.23          65.11         -5.812           14.4         -115.7          39.18         -8.481          76.73          126.7
    0.3175              -42.42          37.39          62.22          65.11         -5.815          14.39         -115.6          39.18         -8.454          76.75          126.7
    0.3439              -42.41          37.39          62.21          65.11         -5.818          14.39         -115.5          39.17         -8.426          76.77          126.6
    0.3704              -42.41          37.38          62.19          65.11         -5.821          14.38         -115.4          39.17         -8.396          76.78          126.6
    0.3968               -42.4          37.37          62.18          65.11         -5.825          14.38         -115.3          39.16         -8.362           76.8          126.5
    0.4233              -42.39          37.36          62.16          65.11         -5.828          14.37         -115.2          39.16         -8.326          76.83          126.5
    0.4498              -42.38          37.36          62.15          65.11         -5.832          14.37         -115.1          39.15         -8.287          76.85          126.4
    0.4762              -42.37          37.35          62.13          65.11         -5.837          14.36         -114.9          39.15         -8.244          76.87          126.4
    0.5027              -42.35          37.34          62.11          65.11         -5.842          14.35         -114.8          39.14         -8.197           76.9          126.3
    0.5291              -42.34          37.33          62.08          65.11         -5.847          14.34         -114.6          39.14         -8.146          76.93          126.3
    0.5556              -42.33          37.31          62.06          65.11         -5.853          14.34         -114.4          39.13         -8.089          76.97          126.2
     0.582              -42.31           37.3          62.03          65.11          -5.86          14.33         -114.2          39.12         -8.026          77.01          126.1
    0.6085              -42.29          37.29           62.0          65.12         -5.867          14.32         -114.0          39.11         -7.957          77.05          126.0
     0.635              -42.27          37.27          61.96          65.12         -5.875           14.3         -113.7           39.1          -7.88          77.09          125.9
    0.6614              -42.25          37.25          61.92          65.12         -5.884          14.29         -113.4          39.09         -7.793          77.15          125.8
    0.6879              -42.23          37.23          61.88          65.12         -5.894          14.28         -113.1          39.08         -7.697           77.2          125.7
    0.7143               -42.2          37.21          61.83          65.12         -5.905          14.26         -112.8          39.07         -7.588          77.27          125.6
    0.7408              -42.17          37.18          61.78          65.12         -5.918          14.24         -112.4          39.05         -7.466          77.34          125.4
    0.7672              -42.13          37.15          61.72          65.12         -5.932          14.22         -111.9          39.03         -7.326          77.43          125.2
    0.7937              -42.09          37.12          61.64          65.12         -5.949           14.2         -111.4          39.01         -7.167          77.52          125.0
    0.8202              -42.05          37.08          61.56          65.12         -5.968          14.17         -110.8          38.99         -6.985          77.63          124.8
    0.8466              -41.99          37.04          61.47          65.12          -5.99          14.14         -110.1          38.96         -6.774          77.76          124.5
    0.8731              -41.93          36.98          61.36          65.12         -6.015           14.1         -109.3          38.93          -6.53           77.9          124.2
    0.8995              -41.86          36.92          61.23          65.12         -6.045          14.05         -108.3           38.9         -6.243          78.08          123.9
     0.926              -41.77          36.85          61.08          65.12          -6.08           14.0         -107.2          38.86         -5.906          78.28          123.4
    0.9524              -41.67          36.77           60.9          65.12         -6.122          13.94         -105.9           38.8         -5.504          78.52          122.9
    0.9789              -41.55          36.66          60.69          65.13         -6.172          13.87         -104.3          38.74         -5.023          78.81          122.3
     1.005               -41.4          36.54          60.43          65.13         -6.232          13.78         -102.4          38.67         -4.442          79.16          121.6
     1.032              -41.22          36.39          60.11          65.13         -6.306          13.67         -100.0          38.58         -3.731          79.58          120.7
     1.058               -41.0           36.2          59.72          65.13         -6.398          13.54         -97.15          38.47         -2.854          80.11          119.6
     1.085              -40.72          35.97          59.23          65.14         -6.512          13.37         -93.54          38.33          -1.76          80.77          118.2
     1.111              -40.37          35.68          58.61          65.14         -6.655          13.16          -89.0          38.16        -0.3819           81.6          116.5
     1.138              -39.93          35.31          57.83          65.15         -6.837          12.89         -83.22          37.94           1.37          82.65          114.2
     1.164              -39.36          34.83          56.83          65.16          -7.07          12.55         -75.82          37.66          3.612          83.99          111.4
     1.191              -38.63          34.22          55.54          65.17          -7.37          12.11         -66.33           37.3          6.489          85.72          107.8
     1.217               -37.7          33.44           53.9          65.18         -7.752          11.55         -54.21          36.83          10.16          87.93          103.1
     1.243              -36.53          32.46          51.83           65.2         -8.233          10.84         -38.96          36.25          14.79           90.7           97.3
      1.27               -35.1          31.27          49.32          65.22         -8.819          9.983         -20.38          35.55          20.42          94.08          90.18
     1.296              -33.45          29.88           46.4          65.24         -9.498          8.986          1.153          34.72          26.94           98.0          81.94
     1.323              -31.66          28.38          43.24          65.27         -10.23          7.906          24.47          33.84          34.01          102.2          73.01
     1.349              -29.87          26.88          40.08           65.3         -10.97          6.827          47.79          32.95          41.08          106.5          64.08
     1.376              -28.21           25.5          37.17          65.32         -11.65           5.83          69.32          32.13          47.61          110.4          55.84
     1.402              -26.79           24.3          34.65          65.34         -12.23           4.97           87.9          31.42          53.24          113.8          48.72
